<?xml version="1.0" encoding="UTF-8"?>
<svg width="278px" height="24px" viewBox="0 0 278 24" version="1.1" xmlns="http://www.w3.org/2000/svg" xmlns:xlink="http://www.w3.org/1999/xlink">
    <!-- Generator: Sketch 48.2 (47327) - http://www.bohemiancoding.com/sketch -->
    <title>Logo</title>
    <desc>Created with Sketch.</desc>
    <defs>
        <polygon id="path-1" points="0.00024 0.5232 10.66744 0.5232 10.66744 10.74632 0.00024 10.74632"></polygon>
        <polygon id="path-3" points="0.14832 0.5232 33.63072 0.5232 33.63072 23.2 0.14832 23.2"></polygon>
        <polygon id="path-5" points="0.00064 0.5232 33.48304 0.5232 33.48304 23.2 0.00064 23.2"></polygon>
        <polygon id="path-7" points="0.58072 0.5232 20.04712 0.5232 20.04712 23.19976 0.58072 23.19976"></polygon>
    </defs>
    <g id="Header-Portal-Not-Logged" stroke="none" stroke-width="1" fill="none" fill-rule="evenodd" transform="translate(-134.000000, -33.000000)">
        <g id="Logo" transform="translate(134.000000, 33.000000)">
            <g id="Group-3" transform="translate(0.000000, 0.277200)">
                <mask id="mask-2" fill="white">
                    <use xlink:href="#path-1"></use>
                </mask>
                <g id="Clip-2"></g>
                <path d="M10.66744,6.74232 C8.17704,3.36472 5.02424,0.52312 0.00024,0.52312 L0.00024,4.94792 C3.66344,4.94792 5.89704,7.45752 8.07384,10.74632 C8.21784,10.51672 8.36264,10.28552 8.50984,10.05112 C9.17944,8.97912 9.88904,7.85032 10.66744,6.74232" id="Fill-1" fill="#939597" mask="url(#mask-2)"></path>
            </g>
            <g id="Group-6" transform="translate(12.000000, 0.277200)">
                <mask id="mask-4" fill="white">
                    <use xlink:href="#path-3"></use>
                </mask>
                <g id="Clip-5"></g>
                <path d="M24.09952,13.03448 C26.81152,8.69448 29.15312,4.94808 33.63072,4.94808 L33.63072,0.52248 C26.70112,0.52248 23.32512,5.92328 20.34752,10.68888 C17.63552,15.02808 15.29312,18.77528 10.81552,18.77528 C7.15152,18.77528 4.91792,16.26568 2.74192,12.97688 C2.59792,13.20648 2.45232,13.43768 2.30592,13.67288 C1.63632,14.74408 0.92592,15.87288 0.14832,16.98168 C2.63872,20.35848 5.79072,23.20008 10.81552,23.20008 C17.74592,23.20008 21.12112,17.79928 24.09952,13.03448" id="Fill-4" fill="#939597" mask="url(#mask-4)"></path>
            </g>
            <g id="Group-9" transform="translate(0.000000, 0.277200)">
                <mask id="mask-6" fill="white">
                    <use xlink:href="#path-5"></use>
                </mask>
                <g id="Clip-8"></g>
                <path d="M13.28384,13.03448 C15.99584,8.69448 18.33744,4.94808 22.81504,4.94808 C26.47904,4.94808 28.71264,7.45688 30.88944,10.74648 C31.03344,10.51768 31.17824,10.28488 31.32544,10.05128 C31.99504,8.97928 32.70464,7.85048 33.48304,6.74248 C30.99264,3.36488 27.83904,0.52248 22.81504,0.52248 C15.88544,0.52248 12.50944,5.92328 9.53184,10.68888 C6.81984,15.02808 4.47744,18.77528 0.00064,18.77528 L0.00064,23.20008 C6.93024,23.20008 10.30544,17.79928 13.28384,13.03448" id="Fill-7" fill="#00B9BB" mask="url(#mask-6)"></path>
            </g>
            <path d="M45.63072,19.05232 C41.96752,19.05232 39.73312,16.54272 37.55632,13.25392 C37.41312,13.48352 37.26832,13.71472 37.12112,13.94992 C36.45152,15.02112 35.74192,16.14992 34.96352,17.25872 C37.45392,20.63552 40.60672,23.47712 45.63072,23.47712 L45.63072,19.05232 Z" id="Fill-10" fill="#00B9BB"></path>
            <g id="Group-14" transform="translate(60.800000, 0.277200)">
                <mask id="mask-8" fill="white">
                    <use xlink:href="#path-7"></use>
                </mask>
                <g id="Clip-13"></g>
                <path d="M3.48312,20.31416 C1.54792,18.39096 0.58072,15.69816 0.58072,12.23736 C0.58072,8.54936 1.56552,5.67416 3.53432,3.61336 C5.50312,1.55336 8.36712,0.52296 12.12472,0.52296 C14.62872,0.52296 16.83672,0.83096 18.74952,1.44456 L18.74952,5.40696 C16.97352,4.76936 14.87832,4.45016 12.46632,4.45016 C9.89272,4.45016 8.04792,5.08216 6.93272,6.34616 C5.81752,7.60936 5.25992,9.57336 5.25992,12.23736 C5.25992,16.95016 7.47912,19.30616 11.91912,19.30616 C13.44472,19.30616 14.85672,19.07896 16.15432,18.62376 L16.15432,13.50056 L11.03192,13.50056 L11.03192,10.56376 L20.04712,10.56376 L20.04712,21.32216 C19.18152,21.86776 18.06632,22.31816 16.69992,22.67016 C15.33352,23.02376 13.71752,23.19976 11.85112,23.19976 C8.20792,23.19976 5.41912,22.23816 3.48312,20.31416" id="Fill-12" fill="#939597" mask="url(#mask-8)"></path>
            </g>
            <polygon id="Fill-15" fill="#939597" points="85.76512 1.14216 101.54352 1.14216 101.54352 4.72696 90.37632 4.72696 90.37632 10.36216 100.28032 10.36216 100.28032 13.91496 90.37632 13.91496 90.37632 19.58376 101.54352 19.58376 101.54352 23.13576 85.76512 23.13576"></polygon>
            <polygon id="Fill-17" fill="#939597" points="106.4612 1.14216 110.4572 1.14216 120.874 15.79256 120.874 1.14216 125.4836 1.14216 125.4836 23.13576 121.4876 23.13576 111.0724 8.48456 111.0724 23.13576 106.4612 23.13576"></polygon>
            <polygon id="Fill-19" fill="#939597" points="131.08464 1.14216 146.86304 1.14216 146.86304 4.72696 135.69584 4.72696 135.69584 10.36216 145.59984 10.36216 145.59984 13.91496 135.69584 13.91496 135.69584 19.58376 146.86304 19.58376 146.86304 23.13576 131.08464 23.13576"></polygon>
            <path d="M160.83152,13.1976 C162.58432,13.1976 163.92752,12.736 164.86192,11.8144 C165.79552,10.892 166.26192,9.6232 166.26192,8.0064 C166.26192,6.2768 165.81792,4.9552 164.92992,4.0448 C164.04272,3.1344 162.73232,2.6792 161.00272,2.6792 L154.27472,2.6792 L154.27472,13.1976 L160.83152,13.1976 Z M152.39632,1.1424 L161.13952,1.1424 C163.46112,1.1424 165.20912,1.756 166.38112,2.9856 C167.55312,4.2152 168.14032,5.8888 168.14032,8.0064 C168.14032,10.0792 167.50272,11.712 166.22752,12.9072 C164.95232,14.1024 163.21072,14.7 161.00272,14.7 L154.27472,14.7 L154.27472,23.136 L152.39632,23.136 L152.39632,1.1424 Z" id="Fill-21" fill="#939597"></path>
            <polygon id="Fill-23" fill="#939597" points="173.60416 1.14216 175.48336 1.14216 175.48336 21.63336 187.64096 21.63336 187.64096 23.13576 173.60416 23.13576"></polygon>
            <path d="M206.15104,15.17808 L201.40384,2.64448 L196.69104,15.17808 L206.15104,15.17808 Z M200.24304,1.14208 L202.63424,1.14208 L210.93344,23.13568 L209.02064,23.13568 L206.59584,16.71488 L196.28144,16.71488 L193.85664,23.13568 L191.91024,23.13568 L200.24304,1.14208 Z" id="Fill-25" fill="#939597"></path>
            <polygon id="Fill-27" fill="#939597" points="217.07992 1.14216 218.85592 1.14216 232.48232 20.33496 232.48232 1.14216 234.36152 1.14216 234.36152 23.13576 232.55112 23.13576 218.95832 3.97656 218.95832 23.13576 217.07992 23.13576"></polygon>
            <polygon id="Fill-29" fill="#939597" points="241.19088 1.14216 255.56928 1.14216 255.56928 2.67896 243.07008 2.67896 243.07008 11.38776 254.37408 11.38776 254.37408 12.89016 243.07008 12.89016 243.07008 21.63336 255.56928 21.63336 255.56928 23.13576 241.19088 23.13576"></polygon>
            <polygon id="Fill-31" fill="#939597" points="267.59008 2.67888 260.00768 2.67888 260.00768 1.14208 277.05008 1.14208 277.05008 2.67888 269.46848 2.67888 269.46848 23.13568 267.59008 23.13568"></polygon>
        </g>
    </g>
</svg>